%TF.GenerationSoftware,KiCad,Pcbnew,9.0.0*%
%TF.CreationDate,2025-06-18T18:11:36+02:00*%
%TF.ProjectId,SHT35_Board,53485433-355f-4426-9f61-72642e6b6963,rev?*%
%TF.SameCoordinates,Original*%
%TF.FileFunction,Legend,Top*%
%TF.FilePolarity,Positive*%
%FSLAX46Y46*%
G04 Gerber Fmt 4.6, Leading zero omitted, Abs format (unit mm)*
G04 Created by KiCad (PCBNEW 9.0.0) date 2025-06-18 18:11:36*
%MOMM*%
%LPD*%
G01*
G04 APERTURE LIST*
%ADD10C,0.100000*%
%ADD11C,0.120000*%
G04 APERTURE END LIST*
D10*
X185330074Y-111286895D02*
X185825312Y-111286895D01*
X185825312Y-111286895D02*
X185558646Y-111591657D01*
X185558646Y-111591657D02*
X185672931Y-111591657D01*
X185672931Y-111591657D02*
X185749122Y-111629752D01*
X185749122Y-111629752D02*
X185787217Y-111667847D01*
X185787217Y-111667847D02*
X185825312Y-111744038D01*
X185825312Y-111744038D02*
X185825312Y-111934514D01*
X185825312Y-111934514D02*
X185787217Y-112010704D01*
X185787217Y-112010704D02*
X185749122Y-112048800D01*
X185749122Y-112048800D02*
X185672931Y-112086895D01*
X185672931Y-112086895D02*
X185444360Y-112086895D01*
X185444360Y-112086895D02*
X185368169Y-112048800D01*
X185368169Y-112048800D02*
X185330074Y-112010704D01*
X186168170Y-112010704D02*
X186206265Y-112048800D01*
X186206265Y-112048800D02*
X186168170Y-112086895D01*
X186168170Y-112086895D02*
X186130074Y-112048800D01*
X186130074Y-112048800D02*
X186168170Y-112010704D01*
X186168170Y-112010704D02*
X186168170Y-112086895D01*
X186472931Y-111286895D02*
X186968169Y-111286895D01*
X186968169Y-111286895D02*
X186701503Y-111591657D01*
X186701503Y-111591657D02*
X186815788Y-111591657D01*
X186815788Y-111591657D02*
X186891979Y-111629752D01*
X186891979Y-111629752D02*
X186930074Y-111667847D01*
X186930074Y-111667847D02*
X186968169Y-111744038D01*
X186968169Y-111744038D02*
X186968169Y-111934514D01*
X186968169Y-111934514D02*
X186930074Y-112010704D01*
X186930074Y-112010704D02*
X186891979Y-112048800D01*
X186891979Y-112048800D02*
X186815788Y-112086895D01*
X186815788Y-112086895D02*
X186587217Y-112086895D01*
X186587217Y-112086895D02*
X186511026Y-112048800D01*
X186511026Y-112048800D02*
X186472931Y-112010704D01*
X187196741Y-111286895D02*
X187463408Y-112086895D01*
X187463408Y-112086895D02*
X187730074Y-111286895D01*
X171328169Y-69168800D02*
X171442455Y-69206895D01*
X171442455Y-69206895D02*
X171632931Y-69206895D01*
X171632931Y-69206895D02*
X171709122Y-69168800D01*
X171709122Y-69168800D02*
X171747217Y-69130704D01*
X171747217Y-69130704D02*
X171785312Y-69054514D01*
X171785312Y-69054514D02*
X171785312Y-68978323D01*
X171785312Y-68978323D02*
X171747217Y-68902133D01*
X171747217Y-68902133D02*
X171709122Y-68864038D01*
X171709122Y-68864038D02*
X171632931Y-68825942D01*
X171632931Y-68825942D02*
X171480550Y-68787847D01*
X171480550Y-68787847D02*
X171404360Y-68749752D01*
X171404360Y-68749752D02*
X171366265Y-68711657D01*
X171366265Y-68711657D02*
X171328169Y-68635466D01*
X171328169Y-68635466D02*
X171328169Y-68559276D01*
X171328169Y-68559276D02*
X171366265Y-68483085D01*
X171366265Y-68483085D02*
X171404360Y-68444990D01*
X171404360Y-68444990D02*
X171480550Y-68406895D01*
X171480550Y-68406895D02*
X171671027Y-68406895D01*
X171671027Y-68406895D02*
X171785312Y-68444990D01*
X172128170Y-69206895D02*
X172128170Y-68406895D01*
X172128170Y-68406895D02*
X172318646Y-68406895D01*
X172318646Y-68406895D02*
X172432932Y-68444990D01*
X172432932Y-68444990D02*
X172509122Y-68521180D01*
X172509122Y-68521180D02*
X172547217Y-68597371D01*
X172547217Y-68597371D02*
X172585313Y-68749752D01*
X172585313Y-68749752D02*
X172585313Y-68864038D01*
X172585313Y-68864038D02*
X172547217Y-69016419D01*
X172547217Y-69016419D02*
X172509122Y-69092609D01*
X172509122Y-69092609D02*
X172432932Y-69168800D01*
X172432932Y-69168800D02*
X172318646Y-69206895D01*
X172318646Y-69206895D02*
X172128170Y-69206895D01*
X172890074Y-68978323D02*
X173271027Y-68978323D01*
X172813884Y-69206895D02*
X173080551Y-68406895D01*
X173080551Y-68406895D02*
X173347217Y-69206895D01*
X190985312Y-111314990D02*
X190909122Y-111276895D01*
X190909122Y-111276895D02*
X190794836Y-111276895D01*
X190794836Y-111276895D02*
X190680550Y-111314990D01*
X190680550Y-111314990D02*
X190604360Y-111391180D01*
X190604360Y-111391180D02*
X190566265Y-111467371D01*
X190566265Y-111467371D02*
X190528169Y-111619752D01*
X190528169Y-111619752D02*
X190528169Y-111734038D01*
X190528169Y-111734038D02*
X190566265Y-111886419D01*
X190566265Y-111886419D02*
X190604360Y-111962609D01*
X190604360Y-111962609D02*
X190680550Y-112038800D01*
X190680550Y-112038800D02*
X190794836Y-112076895D01*
X190794836Y-112076895D02*
X190871027Y-112076895D01*
X190871027Y-112076895D02*
X190985312Y-112038800D01*
X190985312Y-112038800D02*
X191023408Y-112000704D01*
X191023408Y-112000704D02*
X191023408Y-111734038D01*
X191023408Y-111734038D02*
X190871027Y-111734038D01*
X191366265Y-112076895D02*
X191366265Y-111276895D01*
X191366265Y-111276895D02*
X191823408Y-112076895D01*
X191823408Y-112076895D02*
X191823408Y-111276895D01*
X192204360Y-112076895D02*
X192204360Y-111276895D01*
X192204360Y-111276895D02*
X192394836Y-111276895D01*
X192394836Y-111276895D02*
X192509122Y-111314990D01*
X192509122Y-111314990D02*
X192585312Y-111391180D01*
X192585312Y-111391180D02*
X192623407Y-111467371D01*
X192623407Y-111467371D02*
X192661503Y-111619752D01*
X192661503Y-111619752D02*
X192661503Y-111734038D01*
X192661503Y-111734038D02*
X192623407Y-111886419D01*
X192623407Y-111886419D02*
X192585312Y-111962609D01*
X192585312Y-111962609D02*
X192509122Y-112038800D01*
X192509122Y-112038800D02*
X192394836Y-112076895D01*
X192394836Y-112076895D02*
X192204360Y-112076895D01*
X168738169Y-69168800D02*
X168852455Y-69206895D01*
X168852455Y-69206895D02*
X169042931Y-69206895D01*
X169042931Y-69206895D02*
X169119122Y-69168800D01*
X169119122Y-69168800D02*
X169157217Y-69130704D01*
X169157217Y-69130704D02*
X169195312Y-69054514D01*
X169195312Y-69054514D02*
X169195312Y-68978323D01*
X169195312Y-68978323D02*
X169157217Y-68902133D01*
X169157217Y-68902133D02*
X169119122Y-68864038D01*
X169119122Y-68864038D02*
X169042931Y-68825942D01*
X169042931Y-68825942D02*
X168890550Y-68787847D01*
X168890550Y-68787847D02*
X168814360Y-68749752D01*
X168814360Y-68749752D02*
X168776265Y-68711657D01*
X168776265Y-68711657D02*
X168738169Y-68635466D01*
X168738169Y-68635466D02*
X168738169Y-68559276D01*
X168738169Y-68559276D02*
X168776265Y-68483085D01*
X168776265Y-68483085D02*
X168814360Y-68444990D01*
X168814360Y-68444990D02*
X168890550Y-68406895D01*
X168890550Y-68406895D02*
X169081027Y-68406895D01*
X169081027Y-68406895D02*
X169195312Y-68444990D01*
X169995313Y-69130704D02*
X169957217Y-69168800D01*
X169957217Y-69168800D02*
X169842932Y-69206895D01*
X169842932Y-69206895D02*
X169766741Y-69206895D01*
X169766741Y-69206895D02*
X169652455Y-69168800D01*
X169652455Y-69168800D02*
X169576265Y-69092609D01*
X169576265Y-69092609D02*
X169538170Y-69016419D01*
X169538170Y-69016419D02*
X169500074Y-68864038D01*
X169500074Y-68864038D02*
X169500074Y-68749752D01*
X169500074Y-68749752D02*
X169538170Y-68597371D01*
X169538170Y-68597371D02*
X169576265Y-68521180D01*
X169576265Y-68521180D02*
X169652455Y-68444990D01*
X169652455Y-68444990D02*
X169766741Y-68406895D01*
X169766741Y-68406895D02*
X169842932Y-68406895D01*
X169842932Y-68406895D02*
X169957217Y-68444990D01*
X169957217Y-68444990D02*
X169995313Y-68483085D01*
X170719122Y-69206895D02*
X170338170Y-69206895D01*
X170338170Y-69206895D02*
X170338170Y-68406895D01*
X183567143Y-66124968D02*
X183710000Y-66172587D01*
X183710000Y-66172587D02*
X183948095Y-66172587D01*
X183948095Y-66172587D02*
X184043333Y-66124968D01*
X184043333Y-66124968D02*
X184090952Y-66077348D01*
X184090952Y-66077348D02*
X184138571Y-65982110D01*
X184138571Y-65982110D02*
X184138571Y-65886872D01*
X184138571Y-65886872D02*
X184090952Y-65791634D01*
X184090952Y-65791634D02*
X184043333Y-65744015D01*
X184043333Y-65744015D02*
X183948095Y-65696396D01*
X183948095Y-65696396D02*
X183757619Y-65648777D01*
X183757619Y-65648777D02*
X183662381Y-65601158D01*
X183662381Y-65601158D02*
X183614762Y-65553539D01*
X183614762Y-65553539D02*
X183567143Y-65458301D01*
X183567143Y-65458301D02*
X183567143Y-65363063D01*
X183567143Y-65363063D02*
X183614762Y-65267825D01*
X183614762Y-65267825D02*
X183662381Y-65220206D01*
X183662381Y-65220206D02*
X183757619Y-65172587D01*
X183757619Y-65172587D02*
X183995714Y-65172587D01*
X183995714Y-65172587D02*
X184138571Y-65220206D01*
X184567143Y-66172587D02*
X184567143Y-65172587D01*
X184567143Y-65648777D02*
X185138571Y-65648777D01*
X185138571Y-66172587D02*
X185138571Y-65172587D01*
X185471905Y-65172587D02*
X186043333Y-65172587D01*
X185757619Y-66172587D02*
X185757619Y-65172587D01*
X186281429Y-65172587D02*
X186900476Y-65172587D01*
X186900476Y-65172587D02*
X186567143Y-65553539D01*
X186567143Y-65553539D02*
X186710000Y-65553539D01*
X186710000Y-65553539D02*
X186805238Y-65601158D01*
X186805238Y-65601158D02*
X186852857Y-65648777D01*
X186852857Y-65648777D02*
X186900476Y-65744015D01*
X186900476Y-65744015D02*
X186900476Y-65982110D01*
X186900476Y-65982110D02*
X186852857Y-66077348D01*
X186852857Y-66077348D02*
X186805238Y-66124968D01*
X186805238Y-66124968D02*
X186710000Y-66172587D01*
X186710000Y-66172587D02*
X186424286Y-66172587D01*
X186424286Y-66172587D02*
X186329048Y-66124968D01*
X186329048Y-66124968D02*
X186281429Y-66077348D01*
X187805238Y-65172587D02*
X187329048Y-65172587D01*
X187329048Y-65172587D02*
X187281429Y-65648777D01*
X187281429Y-65648777D02*
X187329048Y-65601158D01*
X187329048Y-65601158D02*
X187424286Y-65553539D01*
X187424286Y-65553539D02*
X187662381Y-65553539D01*
X187662381Y-65553539D02*
X187757619Y-65601158D01*
X187757619Y-65601158D02*
X187805238Y-65648777D01*
X187805238Y-65648777D02*
X187852857Y-65744015D01*
X187852857Y-65744015D02*
X187852857Y-65982110D01*
X187852857Y-65982110D02*
X187805238Y-66077348D01*
X187805238Y-66077348D02*
X187757619Y-66124968D01*
X187757619Y-66124968D02*
X187662381Y-66172587D01*
X187662381Y-66172587D02*
X187424286Y-66172587D01*
X187424286Y-66172587D02*
X187329048Y-66124968D01*
X187329048Y-66124968D02*
X187281429Y-66077348D01*
X180209999Y-66782531D02*
X180781427Y-66782531D01*
X180495713Y-67782531D02*
X180495713Y-66782531D01*
X181495713Y-67734912D02*
X181400475Y-67782531D01*
X181400475Y-67782531D02*
X181209999Y-67782531D01*
X181209999Y-67782531D02*
X181114761Y-67734912D01*
X181114761Y-67734912D02*
X181067142Y-67639673D01*
X181067142Y-67639673D02*
X181067142Y-67258721D01*
X181067142Y-67258721D02*
X181114761Y-67163483D01*
X181114761Y-67163483D02*
X181209999Y-67115864D01*
X181209999Y-67115864D02*
X181400475Y-67115864D01*
X181400475Y-67115864D02*
X181495713Y-67163483D01*
X181495713Y-67163483D02*
X181543332Y-67258721D01*
X181543332Y-67258721D02*
X181543332Y-67353959D01*
X181543332Y-67353959D02*
X181067142Y-67449197D01*
X181971904Y-67782531D02*
X181971904Y-67115864D01*
X181971904Y-67211102D02*
X182019523Y-67163483D01*
X182019523Y-67163483D02*
X182114761Y-67115864D01*
X182114761Y-67115864D02*
X182257618Y-67115864D01*
X182257618Y-67115864D02*
X182352856Y-67163483D01*
X182352856Y-67163483D02*
X182400475Y-67258721D01*
X182400475Y-67258721D02*
X182400475Y-67782531D01*
X182400475Y-67258721D02*
X182448094Y-67163483D01*
X182448094Y-67163483D02*
X182543332Y-67115864D01*
X182543332Y-67115864D02*
X182686189Y-67115864D01*
X182686189Y-67115864D02*
X182781428Y-67163483D01*
X182781428Y-67163483D02*
X182829047Y-67258721D01*
X182829047Y-67258721D02*
X182829047Y-67782531D01*
X183305237Y-67115864D02*
X183305237Y-68115864D01*
X183305237Y-67163483D02*
X183400475Y-67115864D01*
X183400475Y-67115864D02*
X183590951Y-67115864D01*
X183590951Y-67115864D02*
X183686189Y-67163483D01*
X183686189Y-67163483D02*
X183733808Y-67211102D01*
X183733808Y-67211102D02*
X183781427Y-67306340D01*
X183781427Y-67306340D02*
X183781427Y-67592054D01*
X183781427Y-67592054D02*
X183733808Y-67687292D01*
X183733808Y-67687292D02*
X183686189Y-67734912D01*
X183686189Y-67734912D02*
X183590951Y-67782531D01*
X183590951Y-67782531D02*
X183400475Y-67782531D01*
X183400475Y-67782531D02*
X183305237Y-67734912D01*
X184590951Y-67734912D02*
X184495713Y-67782531D01*
X184495713Y-67782531D02*
X184305237Y-67782531D01*
X184305237Y-67782531D02*
X184209999Y-67734912D01*
X184209999Y-67734912D02*
X184162380Y-67639673D01*
X184162380Y-67639673D02*
X184162380Y-67258721D01*
X184162380Y-67258721D02*
X184209999Y-67163483D01*
X184209999Y-67163483D02*
X184305237Y-67115864D01*
X184305237Y-67115864D02*
X184495713Y-67115864D01*
X184495713Y-67115864D02*
X184590951Y-67163483D01*
X184590951Y-67163483D02*
X184638570Y-67258721D01*
X184638570Y-67258721D02*
X184638570Y-67353959D01*
X184638570Y-67353959D02*
X184162380Y-67449197D01*
X185067142Y-67782531D02*
X185067142Y-67115864D01*
X185067142Y-67306340D02*
X185114761Y-67211102D01*
X185114761Y-67211102D02*
X185162380Y-67163483D01*
X185162380Y-67163483D02*
X185257618Y-67115864D01*
X185257618Y-67115864D02*
X185352856Y-67115864D01*
X186114761Y-67782531D02*
X186114761Y-67258721D01*
X186114761Y-67258721D02*
X186067142Y-67163483D01*
X186067142Y-67163483D02*
X185971904Y-67115864D01*
X185971904Y-67115864D02*
X185781428Y-67115864D01*
X185781428Y-67115864D02*
X185686190Y-67163483D01*
X186114761Y-67734912D02*
X186019523Y-67782531D01*
X186019523Y-67782531D02*
X185781428Y-67782531D01*
X185781428Y-67782531D02*
X185686190Y-67734912D01*
X185686190Y-67734912D02*
X185638571Y-67639673D01*
X185638571Y-67639673D02*
X185638571Y-67544435D01*
X185638571Y-67544435D02*
X185686190Y-67449197D01*
X185686190Y-67449197D02*
X185781428Y-67401578D01*
X185781428Y-67401578D02*
X186019523Y-67401578D01*
X186019523Y-67401578D02*
X186114761Y-67353959D01*
X186448095Y-67115864D02*
X186829047Y-67115864D01*
X186590952Y-66782531D02*
X186590952Y-67639673D01*
X186590952Y-67639673D02*
X186638571Y-67734912D01*
X186638571Y-67734912D02*
X186733809Y-67782531D01*
X186733809Y-67782531D02*
X186829047Y-67782531D01*
X187590952Y-67115864D02*
X187590952Y-67782531D01*
X187162381Y-67115864D02*
X187162381Y-67639673D01*
X187162381Y-67639673D02*
X187210000Y-67734912D01*
X187210000Y-67734912D02*
X187305238Y-67782531D01*
X187305238Y-67782531D02*
X187448095Y-67782531D01*
X187448095Y-67782531D02*
X187543333Y-67734912D01*
X187543333Y-67734912D02*
X187590952Y-67687292D01*
X188067143Y-67782531D02*
X188067143Y-67115864D01*
X188067143Y-67306340D02*
X188114762Y-67211102D01*
X188114762Y-67211102D02*
X188162381Y-67163483D01*
X188162381Y-67163483D02*
X188257619Y-67115864D01*
X188257619Y-67115864D02*
X188352857Y-67115864D01*
X189067143Y-67734912D02*
X188971905Y-67782531D01*
X188971905Y-67782531D02*
X188781429Y-67782531D01*
X188781429Y-67782531D02*
X188686191Y-67734912D01*
X188686191Y-67734912D02*
X188638572Y-67639673D01*
X188638572Y-67639673D02*
X188638572Y-67258721D01*
X188638572Y-67258721D02*
X188686191Y-67163483D01*
X188686191Y-67163483D02*
X188781429Y-67115864D01*
X188781429Y-67115864D02*
X188971905Y-67115864D01*
X188971905Y-67115864D02*
X189067143Y-67163483D01*
X189067143Y-67163483D02*
X189114762Y-67258721D01*
X189114762Y-67258721D02*
X189114762Y-67353959D01*
X189114762Y-67353959D02*
X188638572Y-67449197D01*
X191114763Y-67782531D02*
X191067144Y-67782531D01*
X191067144Y-67782531D02*
X190971905Y-67734912D01*
X190971905Y-67734912D02*
X190829048Y-67592054D01*
X190829048Y-67592054D02*
X190590953Y-67306340D01*
X190590953Y-67306340D02*
X190495715Y-67163483D01*
X190495715Y-67163483D02*
X190448096Y-67020626D01*
X190448096Y-67020626D02*
X190448096Y-66925388D01*
X190448096Y-66925388D02*
X190495715Y-66830150D01*
X190495715Y-66830150D02*
X190590953Y-66782531D01*
X190590953Y-66782531D02*
X190638572Y-66782531D01*
X190638572Y-66782531D02*
X190733810Y-66830150D01*
X190733810Y-66830150D02*
X190781429Y-66925388D01*
X190781429Y-66925388D02*
X190781429Y-66973007D01*
X190781429Y-66973007D02*
X190733810Y-67068245D01*
X190733810Y-67068245D02*
X190686191Y-67115864D01*
X190686191Y-67115864D02*
X190400477Y-67306340D01*
X190400477Y-67306340D02*
X190352858Y-67353959D01*
X190352858Y-67353959D02*
X190305239Y-67449197D01*
X190305239Y-67449197D02*
X190305239Y-67592054D01*
X190305239Y-67592054D02*
X190352858Y-67687292D01*
X190352858Y-67687292D02*
X190400477Y-67734912D01*
X190400477Y-67734912D02*
X190495715Y-67782531D01*
X190495715Y-67782531D02*
X190638572Y-67782531D01*
X190638572Y-67782531D02*
X190733810Y-67734912D01*
X190733810Y-67734912D02*
X190781429Y-67687292D01*
X190781429Y-67687292D02*
X190924286Y-67496816D01*
X190924286Y-67496816D02*
X190971905Y-67353959D01*
X190971905Y-67353959D02*
X190971905Y-67258721D01*
X179805238Y-69392475D02*
X179805238Y-68392475D01*
X179805238Y-68868665D02*
X180376666Y-68868665D01*
X180376666Y-69392475D02*
X180376666Y-68392475D01*
X181281428Y-68725808D02*
X181281428Y-69392475D01*
X180852857Y-68725808D02*
X180852857Y-69249617D01*
X180852857Y-69249617D02*
X180900476Y-69344856D01*
X180900476Y-69344856D02*
X180995714Y-69392475D01*
X180995714Y-69392475D02*
X181138571Y-69392475D01*
X181138571Y-69392475D02*
X181233809Y-69344856D01*
X181233809Y-69344856D02*
X181281428Y-69297236D01*
X181757619Y-69392475D02*
X181757619Y-68725808D01*
X181757619Y-68821046D02*
X181805238Y-68773427D01*
X181805238Y-68773427D02*
X181900476Y-68725808D01*
X181900476Y-68725808D02*
X182043333Y-68725808D01*
X182043333Y-68725808D02*
X182138571Y-68773427D01*
X182138571Y-68773427D02*
X182186190Y-68868665D01*
X182186190Y-68868665D02*
X182186190Y-69392475D01*
X182186190Y-68868665D02*
X182233809Y-68773427D01*
X182233809Y-68773427D02*
X182329047Y-68725808D01*
X182329047Y-68725808D02*
X182471904Y-68725808D01*
X182471904Y-68725808D02*
X182567143Y-68773427D01*
X182567143Y-68773427D02*
X182614762Y-68868665D01*
X182614762Y-68868665D02*
X182614762Y-69392475D01*
X183090952Y-69392475D02*
X183090952Y-68725808D01*
X183090952Y-68392475D02*
X183043333Y-68440094D01*
X183043333Y-68440094D02*
X183090952Y-68487713D01*
X183090952Y-68487713D02*
X183138571Y-68440094D01*
X183138571Y-68440094D02*
X183090952Y-68392475D01*
X183090952Y-68392475D02*
X183090952Y-68487713D01*
X183995713Y-69392475D02*
X183995713Y-68392475D01*
X183995713Y-69344856D02*
X183900475Y-69392475D01*
X183900475Y-69392475D02*
X183709999Y-69392475D01*
X183709999Y-69392475D02*
X183614761Y-69344856D01*
X183614761Y-69344856D02*
X183567142Y-69297236D01*
X183567142Y-69297236D02*
X183519523Y-69201998D01*
X183519523Y-69201998D02*
X183519523Y-68916284D01*
X183519523Y-68916284D02*
X183567142Y-68821046D01*
X183567142Y-68821046D02*
X183614761Y-68773427D01*
X183614761Y-68773427D02*
X183709999Y-68725808D01*
X183709999Y-68725808D02*
X183900475Y-68725808D01*
X183900475Y-68725808D02*
X183995713Y-68773427D01*
X184471904Y-69392475D02*
X184471904Y-68725808D01*
X184471904Y-68392475D02*
X184424285Y-68440094D01*
X184424285Y-68440094D02*
X184471904Y-68487713D01*
X184471904Y-68487713D02*
X184519523Y-68440094D01*
X184519523Y-68440094D02*
X184471904Y-68392475D01*
X184471904Y-68392475D02*
X184471904Y-68487713D01*
X184805237Y-68725808D02*
X185186189Y-68725808D01*
X184948094Y-68392475D02*
X184948094Y-69249617D01*
X184948094Y-69249617D02*
X184995713Y-69344856D01*
X184995713Y-69344856D02*
X185090951Y-69392475D01*
X185090951Y-69392475D02*
X185186189Y-69392475D01*
X185424285Y-68725808D02*
X185662380Y-69392475D01*
X185900475Y-68725808D02*
X185662380Y-69392475D01*
X185662380Y-69392475D02*
X185567142Y-69630570D01*
X185567142Y-69630570D02*
X185519523Y-69678189D01*
X185519523Y-69678189D02*
X185424285Y-69725808D01*
X186995714Y-69344856D02*
X187138571Y-69392475D01*
X187138571Y-69392475D02*
X187376666Y-69392475D01*
X187376666Y-69392475D02*
X187471904Y-69344856D01*
X187471904Y-69344856D02*
X187519523Y-69297236D01*
X187519523Y-69297236D02*
X187567142Y-69201998D01*
X187567142Y-69201998D02*
X187567142Y-69106760D01*
X187567142Y-69106760D02*
X187519523Y-69011522D01*
X187519523Y-69011522D02*
X187471904Y-68963903D01*
X187471904Y-68963903D02*
X187376666Y-68916284D01*
X187376666Y-68916284D02*
X187186190Y-68868665D01*
X187186190Y-68868665D02*
X187090952Y-68821046D01*
X187090952Y-68821046D02*
X187043333Y-68773427D01*
X187043333Y-68773427D02*
X186995714Y-68678189D01*
X186995714Y-68678189D02*
X186995714Y-68582951D01*
X186995714Y-68582951D02*
X187043333Y-68487713D01*
X187043333Y-68487713D02*
X187090952Y-68440094D01*
X187090952Y-68440094D02*
X187186190Y-68392475D01*
X187186190Y-68392475D02*
X187424285Y-68392475D01*
X187424285Y-68392475D02*
X187567142Y-68440094D01*
X188376666Y-69344856D02*
X188281428Y-69392475D01*
X188281428Y-69392475D02*
X188090952Y-69392475D01*
X188090952Y-69392475D02*
X187995714Y-69344856D01*
X187995714Y-69344856D02*
X187948095Y-69249617D01*
X187948095Y-69249617D02*
X187948095Y-68868665D01*
X187948095Y-68868665D02*
X187995714Y-68773427D01*
X187995714Y-68773427D02*
X188090952Y-68725808D01*
X188090952Y-68725808D02*
X188281428Y-68725808D01*
X188281428Y-68725808D02*
X188376666Y-68773427D01*
X188376666Y-68773427D02*
X188424285Y-68868665D01*
X188424285Y-68868665D02*
X188424285Y-68963903D01*
X188424285Y-68963903D02*
X187948095Y-69059141D01*
X188852857Y-68725808D02*
X188852857Y-69392475D01*
X188852857Y-68821046D02*
X188900476Y-68773427D01*
X188900476Y-68773427D02*
X188995714Y-68725808D01*
X188995714Y-68725808D02*
X189138571Y-68725808D01*
X189138571Y-68725808D02*
X189233809Y-68773427D01*
X189233809Y-68773427D02*
X189281428Y-68868665D01*
X189281428Y-68868665D02*
X189281428Y-69392475D01*
X189710000Y-69344856D02*
X189805238Y-69392475D01*
X189805238Y-69392475D02*
X189995714Y-69392475D01*
X189995714Y-69392475D02*
X190090952Y-69344856D01*
X190090952Y-69344856D02*
X190138571Y-69249617D01*
X190138571Y-69249617D02*
X190138571Y-69201998D01*
X190138571Y-69201998D02*
X190090952Y-69106760D01*
X190090952Y-69106760D02*
X189995714Y-69059141D01*
X189995714Y-69059141D02*
X189852857Y-69059141D01*
X189852857Y-69059141D02*
X189757619Y-69011522D01*
X189757619Y-69011522D02*
X189710000Y-68916284D01*
X189710000Y-68916284D02*
X189710000Y-68868665D01*
X189710000Y-68868665D02*
X189757619Y-68773427D01*
X189757619Y-68773427D02*
X189852857Y-68725808D01*
X189852857Y-68725808D02*
X189995714Y-68725808D01*
X189995714Y-68725808D02*
X190090952Y-68773427D01*
X190710000Y-69392475D02*
X190614762Y-69344856D01*
X190614762Y-69344856D02*
X190567143Y-69297236D01*
X190567143Y-69297236D02*
X190519524Y-69201998D01*
X190519524Y-69201998D02*
X190519524Y-68916284D01*
X190519524Y-68916284D02*
X190567143Y-68821046D01*
X190567143Y-68821046D02*
X190614762Y-68773427D01*
X190614762Y-68773427D02*
X190710000Y-68725808D01*
X190710000Y-68725808D02*
X190852857Y-68725808D01*
X190852857Y-68725808D02*
X190948095Y-68773427D01*
X190948095Y-68773427D02*
X190995714Y-68821046D01*
X190995714Y-68821046D02*
X191043333Y-68916284D01*
X191043333Y-68916284D02*
X191043333Y-69201998D01*
X191043333Y-69201998D02*
X190995714Y-69297236D01*
X190995714Y-69297236D02*
X190948095Y-69344856D01*
X190948095Y-69344856D02*
X190852857Y-69392475D01*
X190852857Y-69392475D02*
X190710000Y-69392475D01*
X191471905Y-69392475D02*
X191471905Y-68725808D01*
X191471905Y-68916284D02*
X191519524Y-68821046D01*
X191519524Y-68821046D02*
X191567143Y-68773427D01*
X191567143Y-68773427D02*
X191662381Y-68725808D01*
X191662381Y-68725808D02*
X191757619Y-68725808D01*
X184281429Y-70335752D02*
X184519524Y-71002419D01*
X184519524Y-71002419D02*
X184757619Y-70335752D01*
X185662381Y-71002419D02*
X185090953Y-71002419D01*
X185376667Y-71002419D02*
X185376667Y-70002419D01*
X185376667Y-70002419D02*
X185281429Y-70145276D01*
X185281429Y-70145276D02*
X185186191Y-70240514D01*
X185186191Y-70240514D02*
X185090953Y-70288133D01*
X186090953Y-70907180D02*
X186138572Y-70954800D01*
X186138572Y-70954800D02*
X186090953Y-71002419D01*
X186090953Y-71002419D02*
X186043334Y-70954800D01*
X186043334Y-70954800D02*
X186090953Y-70907180D01*
X186090953Y-70907180D02*
X186090953Y-71002419D01*
X186757619Y-70002419D02*
X186852857Y-70002419D01*
X186852857Y-70002419D02*
X186948095Y-70050038D01*
X186948095Y-70050038D02*
X186995714Y-70097657D01*
X186995714Y-70097657D02*
X187043333Y-70192895D01*
X187043333Y-70192895D02*
X187090952Y-70383371D01*
X187090952Y-70383371D02*
X187090952Y-70621466D01*
X187090952Y-70621466D02*
X187043333Y-70811942D01*
X187043333Y-70811942D02*
X186995714Y-70907180D01*
X186995714Y-70907180D02*
X186948095Y-70954800D01*
X186948095Y-70954800D02*
X186852857Y-71002419D01*
X186852857Y-71002419D02*
X186757619Y-71002419D01*
X186757619Y-71002419D02*
X186662381Y-70954800D01*
X186662381Y-70954800D02*
X186614762Y-70907180D01*
X186614762Y-70907180D02*
X186567143Y-70811942D01*
X186567143Y-70811942D02*
X186519524Y-70621466D01*
X186519524Y-70621466D02*
X186519524Y-70383371D01*
X186519524Y-70383371D02*
X186567143Y-70192895D01*
X186567143Y-70192895D02*
X186614762Y-70097657D01*
X186614762Y-70097657D02*
X186662381Y-70050038D01*
X186662381Y-70050038D02*
X186757619Y-70002419D01*
D11*
%TO.C,C1*%
X180331248Y-92265000D02*
X180853752Y-92265000D01*
X180331248Y-93735000D02*
X180853752Y-93735000D01*
%TO.C,U1*%
X179260000Y-88750000D02*
X179260000Y-91250000D01*
X181980000Y-88750000D02*
X181980000Y-91250000D01*
X181950000Y-88350000D02*
X181670000Y-88350000D01*
X181670000Y-88070000D01*
X181950000Y-88350000D01*
G36*
X181950000Y-88350000D02*
G01*
X181670000Y-88350000D01*
X181670000Y-88070000D01*
X181950000Y-88350000D01*
G37*
%TO.C,R1*%
X181385000Y-80772936D02*
X181385000Y-81227064D01*
X182855000Y-80772936D02*
X182855000Y-81227064D01*
%TO.C,R2*%
X178385000Y-80772936D02*
X178385000Y-81227064D01*
X179855000Y-80772936D02*
X179855000Y-81227064D01*
%TD*%
M02*
