%TF.GenerationSoftware,KiCad,Pcbnew,9.0.0*%
%TF.CreationDate,2025-06-18T18:11:36+02:00*%
%TF.ProjectId,SHT35_Board,53485433-355f-4426-9f61-72642e6b6963,rev?*%
%TF.SameCoordinates,Original*%
%TF.FileFunction,Copper,L1,Top*%
%TF.FilePolarity,Positive*%
%FSLAX46Y46*%
G04 Gerber Fmt 4.6, Leading zero omitted, Abs format (unit mm)*
G04 Created by KiCad (PCBNEW 9.0.0) date 2025-06-18 18:11:36*
%MOMM*%
%LPD*%
G01*
G04 APERTURE LIST*
G04 Aperture macros list*
%AMRoundRect*
0 Rectangle with rounded corners*
0 $1 Rounding radius*
0 $2 $3 $4 $5 $6 $7 $8 $9 X,Y pos of 4 corners*
0 Add a 4 corners polygon primitive as box body*
4,1,4,$2,$3,$4,$5,$6,$7,$8,$9,$2,$3,0*
0 Add four circle primitives for the rounded corners*
1,1,$1+$1,$2,$3*
1,1,$1+$1,$4,$5*
1,1,$1+$1,$6,$7*
1,1,$1+$1,$8,$9*
0 Add four rect primitives between the rounded corners*
20,1,$1+$1,$2,$3,$4,$5,0*
20,1,$1+$1,$4,$5,$6,$7,0*
20,1,$1+$1,$6,$7,$8,$9,0*
20,1,$1+$1,$8,$9,$2,$3,0*%
%AMFreePoly0*
4,1,6,0.500000,-0.850000,-0.500000,-0.850000,-0.500000,0.550000,-0.200000,0.850000,0.500000,0.850000,0.500000,-0.850000,0.500000,-0.850000,$1*%
G04 Aperture macros list end*
%TA.AperFunction,SMDPad,CuDef*%
%ADD10RoundRect,0.250000X-0.337500X-0.475000X0.337500X-0.475000X0.337500X0.475000X-0.337500X0.475000X0*%
%TD*%
%TA.AperFunction,SMDPad,CuDef*%
%ADD11R,0.250000X0.550000*%
%TD*%
%TA.AperFunction,SMDPad,CuDef*%
%ADD12FreePoly0,270.000000*%
%TD*%
%TA.AperFunction,SMDPad,CuDef*%
%ADD13RoundRect,0.250000X-0.450000X0.350000X-0.450000X-0.350000X0.450000X-0.350000X0.450000X0.350000X0*%
%TD*%
%TA.AperFunction,ComponentPad*%
%ADD14R,1.700000X1.700000*%
%TD*%
%TA.AperFunction,ComponentPad*%
%ADD15O,1.700000X1.700000*%
%TD*%
%TA.AperFunction,ViaPad*%
%ADD16C,0.600000*%
%TD*%
%TA.AperFunction,Conductor*%
%ADD17C,0.300000*%
%TD*%
%TA.AperFunction,Conductor*%
%ADD18C,0.200000*%
%TD*%
G04 APERTURE END LIST*
D10*
%TO.P,C1,1*%
%TO.N,/3.3V*%
X179555000Y-93000000D03*
%TO.P,C1,2*%
%TO.N,GND*%
X181630000Y-93000000D03*
%TD*%
D11*
%TO.P,U1,1,SDA*%
%TO.N,/SDA1*%
X181370000Y-88825000D03*
%TO.P,U1,2,ADDR*%
%TO.N,GND*%
X180870000Y-88825000D03*
%TO.P,U1,3,ALERT*%
%TO.N,unconnected-(U1-ALERT-Pad3)*%
X180370000Y-88825000D03*
%TO.P,U1,4,SCL*%
%TO.N,/SCL1*%
X179870000Y-88825000D03*
%TO.P,U1,5,VDD*%
%TO.N,/3.3V*%
X179870000Y-91175000D03*
%TO.P,U1,6,~{RESET}*%
%TO.N,unconnected-(U1-~{RESET}-Pad6)*%
X180370000Y-91175000D03*
%TO.P,U1,7,R*%
%TO.N,GND*%
X180870000Y-91175000D03*
%TO.P,U1,8,VSS*%
X181370000Y-91175000D03*
D12*
%TO.P,U1,9,VSS*%
X180620000Y-90000000D03*
%TD*%
D13*
%TO.P,R1,1*%
%TO.N,/3.3V*%
X182120000Y-80000000D03*
%TO.P,R1,2*%
%TO.N,/SDA1*%
X182120000Y-82000000D03*
%TD*%
%TO.P,R2,1*%
%TO.N,/3.3V*%
X179120000Y-80000000D03*
%TO.P,R2,2*%
%TO.N,/SCL1*%
X179120000Y-82000000D03*
%TD*%
D14*
%TO.P,J1,1,Pin_1*%
%TO.N,/3.3V*%
X186484000Y-114645000D03*
D15*
%TO.P,J1,2,Pin_2*%
%TO.N,unconnected-(J1-Pin_2-Pad2)*%
X189024000Y-114645000D03*
%TO.P,J1,3,Pin_3*%
%TO.N,GND*%
X191564000Y-114645000D03*
%TD*%
D14*
%TO.P,J2,1,Pin_1*%
%TO.N,/SDA1*%
X172260000Y-66385000D03*
D15*
%TO.P,J2,2,Pin_2*%
%TO.N,/SCL1*%
X169720000Y-66385000D03*
%TD*%
D16*
%TO.N,/SCL1*%
X177320000Y-83250000D03*
%TO.N,/SDA1*%
X184070000Y-81990000D03*
%TD*%
D17*
%TO.N,/3.3V*%
X174200000Y-84499347D02*
X174200000Y-102361000D01*
X179555000Y-93000000D02*
X179810000Y-93255000D01*
X179810000Y-104500000D02*
X178074500Y-106235500D01*
X179870000Y-92685000D02*
X179555000Y-93000000D01*
X174200000Y-102361000D02*
X178074500Y-106235500D01*
X179120000Y-80000000D02*
X178699347Y-80000000D01*
X178074500Y-106235500D02*
X179664500Y-107825500D01*
X179664500Y-107825500D02*
X186484000Y-114645000D01*
X179810000Y-93255000D02*
X179810000Y-104500000D01*
X179120000Y-80000000D02*
X182120000Y-80000000D01*
X179870000Y-91175000D02*
X179870000Y-92685000D01*
X178699347Y-80000000D02*
X174200000Y-84499347D01*
D18*
%TO.N,GND*%
X181370000Y-91175000D02*
X181370000Y-92740000D01*
X180870000Y-89750000D02*
X180620000Y-90000000D01*
X181519000Y-104600000D02*
X191564000Y-114645000D01*
X181519000Y-93111000D02*
X181519000Y-104600000D01*
X180870000Y-91175000D02*
X181370000Y-91175000D01*
X180870000Y-90250000D02*
X180870000Y-91175000D01*
X181630000Y-93000000D02*
X181519000Y-93111000D01*
X181370000Y-92740000D02*
X181630000Y-93000000D01*
X180620000Y-90000000D02*
X180870000Y-90250000D01*
X180870000Y-88825000D02*
X180870000Y-89750000D01*
%TO.N,/SCL1*%
X178570000Y-82000000D02*
X177350000Y-83220000D01*
X179120000Y-82000000D02*
X179870000Y-82750000D01*
X177350000Y-83220000D02*
X177320000Y-83250000D01*
X179870000Y-82750000D02*
X179870000Y-88825000D01*
X179120000Y-82000000D02*
X178570000Y-82000000D01*
%TO.N,/SDA1*%
X184060000Y-82000000D02*
X184070000Y-81990000D01*
X182120000Y-82000000D02*
X184060000Y-82000000D01*
X181370000Y-82750000D02*
X181370000Y-88825000D01*
X182120000Y-82000000D02*
X181370000Y-82750000D01*
%TD*%
M02*
