%TF.GenerationSoftware,KiCad,Pcbnew,8.0.9*%
%TF.CreationDate,2025-05-14T11:38:39+02:00*%
%TF.ProjectId,MiniJack2Jumper,4d696e69-4a61-4636-9b32-4a756d706572,rev?*%
%TF.SameCoordinates,Original*%
%TF.FileFunction,Legend,Top*%
%TF.FilePolarity,Positive*%
%FSLAX46Y46*%
G04 Gerber Fmt 4.6, Leading zero omitted, Abs format (unit mm)*
G04 Created by KiCad (PCBNEW 8.0.9) date 2025-05-14 11:38:39*
%MOMM*%
%LPD*%
G01*
G04 APERTURE LIST*
%ADD10C,0.150000*%
%ADD11C,0.152400*%
%ADD12C,0.508000*%
G04 APERTURE END LIST*
D10*
X139541541Y-99069819D02*
X140160588Y-99069819D01*
X140160588Y-99069819D02*
X139827255Y-99450771D01*
X139827255Y-99450771D02*
X139970112Y-99450771D01*
X139970112Y-99450771D02*
X140065350Y-99498390D01*
X140065350Y-99498390D02*
X140112969Y-99546009D01*
X140112969Y-99546009D02*
X140160588Y-99641247D01*
X140160588Y-99641247D02*
X140160588Y-99879342D01*
X140160588Y-99879342D02*
X140112969Y-99974580D01*
X140112969Y-99974580D02*
X140065350Y-100022200D01*
X140065350Y-100022200D02*
X139970112Y-100069819D01*
X139970112Y-100069819D02*
X139684398Y-100069819D01*
X139684398Y-100069819D02*
X139589160Y-100022200D01*
X139589160Y-100022200D02*
X139541541Y-99974580D01*
X140589160Y-99974580D02*
X140636779Y-100022200D01*
X140636779Y-100022200D02*
X140589160Y-100069819D01*
X140589160Y-100069819D02*
X140541541Y-100022200D01*
X140541541Y-100022200D02*
X140589160Y-99974580D01*
X140589160Y-99974580D02*
X140589160Y-100069819D01*
X140970112Y-99069819D02*
X141589159Y-99069819D01*
X141589159Y-99069819D02*
X141255826Y-99450771D01*
X141255826Y-99450771D02*
X141398683Y-99450771D01*
X141398683Y-99450771D02*
X141493921Y-99498390D01*
X141493921Y-99498390D02*
X141541540Y-99546009D01*
X141541540Y-99546009D02*
X141589159Y-99641247D01*
X141589159Y-99641247D02*
X141589159Y-99879342D01*
X141589159Y-99879342D02*
X141541540Y-99974580D01*
X141541540Y-99974580D02*
X141493921Y-100022200D01*
X141493921Y-100022200D02*
X141398683Y-100069819D01*
X141398683Y-100069819D02*
X141112969Y-100069819D01*
X141112969Y-100069819D02*
X141017731Y-100022200D01*
X141017731Y-100022200D02*
X140970112Y-99974580D01*
X140801316Y-94488866D02*
X141563221Y-94488866D01*
X141182268Y-94869819D02*
X141182268Y-94107914D01*
X140801316Y-96988866D02*
X141563221Y-96988866D01*
X139460588Y-91417438D02*
X139365350Y-91369819D01*
X139365350Y-91369819D02*
X139222493Y-91369819D01*
X139222493Y-91369819D02*
X139079636Y-91417438D01*
X139079636Y-91417438D02*
X138984398Y-91512676D01*
X138984398Y-91512676D02*
X138936779Y-91607914D01*
X138936779Y-91607914D02*
X138889160Y-91798390D01*
X138889160Y-91798390D02*
X138889160Y-91941247D01*
X138889160Y-91941247D02*
X138936779Y-92131723D01*
X138936779Y-92131723D02*
X138984398Y-92226961D01*
X138984398Y-92226961D02*
X139079636Y-92322200D01*
X139079636Y-92322200D02*
X139222493Y-92369819D01*
X139222493Y-92369819D02*
X139317731Y-92369819D01*
X139317731Y-92369819D02*
X139460588Y-92322200D01*
X139460588Y-92322200D02*
X139508207Y-92274580D01*
X139508207Y-92274580D02*
X139508207Y-91941247D01*
X139508207Y-91941247D02*
X139317731Y-91941247D01*
X139936779Y-92369819D02*
X139936779Y-91369819D01*
X139936779Y-91369819D02*
X140508207Y-92369819D01*
X140508207Y-92369819D02*
X140508207Y-91369819D01*
X140984398Y-92369819D02*
X140984398Y-91369819D01*
X140984398Y-91369819D02*
X141222493Y-91369819D01*
X141222493Y-91369819D02*
X141365350Y-91417438D01*
X141365350Y-91417438D02*
X141460588Y-91512676D01*
X141460588Y-91512676D02*
X141508207Y-91607914D01*
X141508207Y-91607914D02*
X141555826Y-91798390D01*
X141555826Y-91798390D02*
X141555826Y-91941247D01*
X141555826Y-91941247D02*
X141508207Y-92131723D01*
X141508207Y-92131723D02*
X141460588Y-92226961D01*
X141460588Y-92226961D02*
X141365350Y-92322200D01*
X141365350Y-92322200D02*
X141222493Y-92369819D01*
X141222493Y-92369819D02*
X140984398Y-92369819D01*
X126766422Y-91254425D02*
X126766422Y-91969234D01*
X126766422Y-91969234D02*
X126718769Y-92112196D01*
X126718769Y-92112196D02*
X126623461Y-92207504D01*
X126623461Y-92207504D02*
X126480499Y-92255157D01*
X126480499Y-92255157D02*
X126385191Y-92255157D01*
X127767154Y-92255157D02*
X127195307Y-92255157D01*
X127481231Y-92255157D02*
X127481231Y-91254425D01*
X127481231Y-91254425D02*
X127385923Y-91397387D01*
X127385923Y-91397387D02*
X127290615Y-91492695D01*
X127290615Y-91492695D02*
X127195307Y-91540349D01*
X145566666Y-89054819D02*
X145566666Y-89769104D01*
X145566666Y-89769104D02*
X145519047Y-89911961D01*
X145519047Y-89911961D02*
X145423809Y-90007200D01*
X145423809Y-90007200D02*
X145280952Y-90054819D01*
X145280952Y-90054819D02*
X145185714Y-90054819D01*
X145995238Y-89150057D02*
X146042857Y-89102438D01*
X146042857Y-89102438D02*
X146138095Y-89054819D01*
X146138095Y-89054819D02*
X146376190Y-89054819D01*
X146376190Y-89054819D02*
X146471428Y-89102438D01*
X146471428Y-89102438D02*
X146519047Y-89150057D01*
X146519047Y-89150057D02*
X146566666Y-89245295D01*
X146566666Y-89245295D02*
X146566666Y-89340533D01*
X146566666Y-89340533D02*
X146519047Y-89483390D01*
X146519047Y-89483390D02*
X145947619Y-90054819D01*
X145947619Y-90054819D02*
X146566666Y-90054819D01*
D11*
%TO.C,J2*%
X144623060Y-90523000D02*
X144623060Y-100937000D01*
X144623060Y-100937000D02*
X147250000Y-100937000D01*
X147250000Y-90523000D02*
X144623060Y-90523000D01*
X147250000Y-100937000D02*
X147250000Y-90523000D01*
D12*
X143381000Y-101826000D02*
G75*
G02*
X142619000Y-101826000I-381000J0D01*
G01*
X142619000Y-101826000D02*
G75*
G02*
X143381000Y-101826000I381000J0D01*
G01*
%TD*%
M02*
